<svg xmlns="http://www.w3.org/2000/svg" viewBox="0 0 24 24" role="img"><defs><linearGradient id="g" x1="3" x2="21" y1="21" y2="3" gradientUnits="userSpaceOnUse"><stop stop-color="#9945FF"/><stop offset=".5" stop-color="#14F195"/><stop offset="1" stop-color="#00FFA3"/></linearGradient></defs><path fill="url(#g)" d="M6.1 5.2c.2-.2.5-.3.8-.3h13.5c.5 0 .7.6.4.9l-2.7 2.7c-.2.2-.5.3-.8.3H3.8c-.5 0-.7-.6-.4-.9l2.7-2.7Zm0 10c.2-.2.5-.3.8-.3h13.5c.5 0 .7.6.4.9l-2.7 2.7c-.2.2-.5.3-.8.3H3.8c-.5 0-.7-.6-.4-.9l2.7-2.7Zm12-5c-.2-.2-.5-.3-.8-.3H3.8c-.5 0-.7.6-.4.9l2.7 2.7c.2.2.5.3.8.3h13.5c.5 0 .7-.6.4-.9l-2.7-2.7Z"/></svg>
